<?xml version="1.0"?>
<svg xmlns="http://www.w3.org/2000/svg" viewBox="0 0 811 811">
  <g class="r-wing" id="r-wing">
    <path fill="#f36e2f" d="M 286.8,155.0 L 424.0,212.4 L 269.5,194.3 L 222.4,186.9 L 195.2,121.3 L 286.8,155.0 Z"/>
    <path fill="#ea5530" d="M 424.0,212.4 L 278.7,256.0 L 222.4,186.9 L 269.5,194.3 L 424.0,212.4 Z"/>
    <path fill="#f67e32" d="M 424.0,212.4 L 286.8,155.0 L 195.2,121.3 L 188.4,65.5 L 424.0,212.4 Z"/>
    <path fill="#dd3d31" d="M 278.7,256.0 L 424.0,212.4 L 408.8,255.5 L 341.9,259.9 L 278.7,256.0 Z"/>
    <path fill="#ba342b" d="M 424.0,212.4 L 473.4,243.9 L 408.8,255.5 L 424.0,212.4 Z"/>
  </g>
  <g class="tail" id="tail">
    <path fill="#429d51" d="M 408.5,645.4 L 434.0,552.5 L 487.4,585.9 L 408.5,645.4 Z"/>
    <path fill="#13aa97" d="M 378.3,571.4 L 408.5,645.4 L 368.6,721.8 L 378.3,571.4 Z"/>
    <path fill="#39753f" d="M 487.4,585.9 L 434.0,552.5 L 452.1,475.6 L 487.4,585.9 Z"/>
    <path fill="#17645f" d="M 434.0,552.5 L 408.5,645.4 L 392.9,519.6 L 434.0,552.5 Z"/>
    <path fill="#164847" d="M 378.3,571.4 L 364.0,525.8 L 392.9,519.6 L 408.5,645.4 L 378.3,571.4 Z"/>
    <path fill="#154747" d="M 392.9,519.6 L 452.1,475.6 L 434.0,552.5 L 392.9,519.6 Z"/>
    <path fill="#12a592" d="M 364.0,525.8 L 378.3,571.4 L 368.6,721.8 L 364.0,525.8 Z"/>
  </g>
  <g class="body" id="body">
    <path fill="#0b8f5e" d="M 526.9,415.4 L 452.1,475.6 L 392.9,519.6 L 364.0,525.8 L 444.4,342.7 L 526.9,415.4 Z"/>
    <path fill="#379959" d="M 364.0,525.8 L 353.2,418.1 L 444.4,342.7 L 364.0,525.8 Z"/>
    <path fill="#098151" d="M 526.9,415.4 L 444.4,342.7 L 504.6,311.1 L 526.9,415.4 Z"/>
    <path fill="#175b6a" d="M 582.0,256.3 L 564.2,346.5 L 504.6,311.1 L 582.0,256.3 Z"/>
    <path fill="#1c7886" d="M 504.6,311.1 L 564.2,346.5 L 526.9,415.4 L 504.6,311.1 Z"/>
    <path fill="#60ba68" d="M 408.8,255.5 L 436.4,308.7 L 374.7,354.1 L 408.8,255.5 Z"/>
    <path fill="#6ead5a" d="M 353.2,418.1 L 374.7,354.1 L 444.4,342.7 L 353.2,418.1 Z"/>
    <path fill="#5fb78d" d="M 444.4,342.7 L 488.4,261.7 L 504.6,311.1 L 444.4,342.7 Z"/>
    <path fill="#7cc577" d="M 374.7,354.1 L 436.4,308.7 L 444.4,342.7 L 374.7,354.1 Z"/>
    <path fill="#4c9e8c" d="M 488.4,261.7 L 444.4,342.7 L 436.4,308.7 L 488.4,261.7 Z"/>
  </g>
  <g class="l-wing" id="l-wing">
    <path fill="#deb72e" d="M 341.9,259.9 L 322.9,317.4 L 235.0,379.5 L 134.6,343.3 L 226.7,307.3 L 341.9,259.9 Z"/>
    <path fill="#f3cc41" d="M 173.1,281.0 L 278.7,256.0 L 341.9,259.9 L 226.7,307.3 L 134.6,343.3 L 53.8,301.8 L 173.1,281.0 Z"/>
    <path fill="#f6c235" d="M 278.7,256.0 L 173.1,281.0 L 53.8,301.8 L 5.2,263.1 L 278.7,256.0 Z"/>
    <path fill="#d49c06" d="M 322.9,317.4 L 408.8,255.5 L 374.7,354.1 L 319.7,400.1 L 322.9,317.4 Z"/>
    <path fill="#bf8d0f" d="M 322.9,317.4 L 319.7,400.1 L 235.0,379.5 L 322.9,317.4 Z"/>
    <path fill="#f2be2e" d="M 322.9,317.4 L 341.9,259.9 L 408.8,255.5 L 322.9,317.4 Z"/>
    <path fill="#b28217" d="M 353.2,418.1 L 331.5,406.1 L 319.7,400.1 L 374.7,354.1 L 353.2,418.1 Z"/>
  </g>
  <g class="head" id="head">
    <path fill="#28949a" d="M 478.1,210.6 L 485.9,179.1 L 565.5,184.9 L 580.5,189.5 L 504.6,311.1 L 488.4,261.7 L 473.4,243.9 L 478.1,210.6 Z"/>
    <path fill="#1b394b" d="M 580.5,189.5 L 582.0,256.3 L 504.6,311.1 L 580.5,189.5 Z"/>
    <path fill="#3fb6aa" d="M 580.5,189.5 L 565.5,184.9 L 547.1,144.6 L 652.2,178.6 L 596.8,189.8 L 580.5,189.5 Z"/>
    <path fill="#39b79e" d="M 436.4,308.7 L 408.8,255.5 L 473.4,243.9 L 436.4,308.7 Z"/>
    <path fill="#377e7b" d="M 775.1,159.7 L 700.0,170.0 L 652.2,178.6 L 547.1,144.6 L 652.2,162.0 L 775.1,159.7 Z"/>
    <path fill="#16573b" d="M 582.0,256.3 L 580.5,189.5 L 596.8,189.8 L 630.7,199.0 L 582.0,256.3 Z"/>
    <path fill="#108067" d="M 565.5,184.9 L 485.9,179.1 L 547.1,144.6 L 565.5,184.9 Z"/>
    <path fill="#154c4f" d="M 700.0,170.0 L 775.1,159.7 L 630.7,199.0 L 652.2,178.6 L 700.0,170.0 Z"/>
    <path fill="#27a26f" d="M 473.4,243.9 L 488.4,261.7 L 436.4,308.7 L 473.4,243.9 Z"/>
    <path fill="#213f46" d="M 630.7,199.0 L 596.8,189.8 L 652.2,178.6 L 630.7,199.0 Z"/>
  </g>
</svg>