<svg xmlns="http://www.w3.org/2000/svg" viewBox="0 0 1200 630" preserveAspectRatio="xMidYMid slice">
  <rect width="1200" height="630" fill="#f4ebd4"/>
  <polygon points="0,0 540,0 380,260 0,220" fill="#13aa97"/>
  <polygon points="540,0 1200,0 1200,200 820,260 380,260" fill="#173847"/>
  <polygon points="0,220 380,260 240,440 0,420" fill="#1c5a52"/>
  <polygon points="380,260 820,260 940,420 600,500 240,440" fill="#0a2520"/>
  <polygon points="820,260 1200,200 1200,420 940,420" fill="#2dbb98"/>
  <polygon points="0,420 240,440 600,500 600,630 0,630" fill="#ede2c2"/>
  <polygon points="600,500 940,420 1200,420 1200,630 600,630" fill="#d49c06"/>
  <circle cx="1000" cy="340" r="56" fill="#f3c33b"/>
  <polygon points="1000,310 1042,360 958,360" fill="#bf8d0f"/>
  <polygon points="1000,310 1042,360 1000,400" fill="#deb72e"/>
</svg>
